<svg xmlns="http://www.w3.org/2000/svg" xmlns:xlink="http://www.w3.org/1999/xlink" width="500" zoomAndPan="magnify" viewBox="0 0 375 374.999991" height="500" preserveAspectRatio="xMidYMid meet" version="1.0"><defs><g/><clipPath id="89ad5a0015"><path d="M 139 158 L 219 158 L 219 277 L 139 277 Z M 139 158 " clip-rule="nonzero"/></clipPath><clipPath id="561379281a"><path d="M 184.699219 158.378906 L 218.988281 173.601562 L 173.34375 276.425781 L 139.054688 261.203125 Z M 184.699219 158.378906 " clip-rule="nonzero"/></clipPath><clipPath id="4bc3fe6389"><path d="M 105.105469 105.046875 L 217.574219 105.046875 L 217.574219 148.363281 L 105.105469 148.363281 Z M 105.105469 105.046875 " clip-rule="nonzero"/></clipPath></defs><g fill="#000000" fill-opacity="1"><g transform="translate(111.873945, 263.522625)"><g><path d="M 151.015625 -151.875 L 83.75 0 L 67.90625 0 L 0.65625 -151.875 L 18.015625 -151.875 L 76.15625 -19.96875 L 134.734375 -151.875 Z M 151.015625 -151.875 "/></g></g></g><g clip-path="url(#89ad5a0015)"><g clip-path="url(#561379281a)"><path fill="#fffefd" d="M 184.699219 158.378906 L 218.988281 173.601562 L 173.324219 276.46875 L 139.035156 261.25 Z M 184.699219 158.378906 " fill-opacity="1" fill-rule="nonzero"/></g></g><g clip-path="url(#4bc3fe6389)"><path fill="#fffefd" d="M 217.574219 105.046875 L 217.574219 148.363281 L 105.054688 148.363281 L 105.054688 105.046875 Z M 217.574219 105.046875 " fill-opacity="1" fill-rule="nonzero"/></g></svg>